# xmcd
#
# Track frame offsets: 
#        187
#        17520
#        35910
#        51337
#        65617
#        81610
#        102235
#        118077
#        135487
#        152392
#
# Disc length: 2265 seconds
#
# Revision: 2
# Processed by: cddbd v1.4PL0 Copyright (c) Steve Scherf et al.
# Submitted via: ExactAudioCopy v0.95a3
#
DISCID=8608d70a
DTITLE=Paul Overstreet - The Best of Paul Overstreet
DYEAR=1994
DGENRE=Country
TTITLE0=Sowin' Love
TTITLE1=All The Fun
TTITLE2=Seein' My Father In Me
TTITLE3=Richest Man On Earth
TTITLE4=Daddy's Come Around
TTITLE5=Heroes
TTITLE6=Ball and Chain
TTITLE7=If I Could Bottle This Up
TTITLE8=Billy Can't Read
TTITLE9=Take Another Run
EXTD=
EXTT0=
EXTT1=
EXTT2=
EXTT3=
EXTT4=
EXTT5=
EXTT6=
EXTT7=
EXTT8=
EXTT9=
PLAYORDER=
